<?xml version="1.0" encoding="utf-8"?>
<!-- Generator: Adobe Illustrator 23.1.0, SVG Export Plug-In . SVG Version: 6.00 Build 0)  -->
<svg version="1.1" id="レイヤー_1" xmlns="http://www.w3.org/2000/svg" xmlns:xlink="http://www.w3.org/1999/xlink" x="0px"
	 y="0px" viewBox="0 0 569.72 670.23" style="enable-background:new 0 0 569.72 670.23;" xml:space="preserve">
<style type="text/css">
	.st0{fill:url(#SVGID_1_);}
	.st1{fill:#404040;}
</style>
<g>
	<linearGradient id="SVGID_1_" gradientUnits="userSpaceOnUse" x1="139.6802" y1="77.2853" x2="441.0617" y2="378.6668">
		<stop  offset="0" style="stop-color:#9CD4F4"/>
		<stop  offset="1" style="stop-color:#00D478"/>
	</linearGradient>
	<path class="st0" d="M166.64,90.69l33.66,0.01l-16.83,16.83L166.64,90.69z M153.35,103.96v33.69l16.85-16.85L153.35,103.96z
		 M363.85,90.76l-138.32-0.05l0.66,0.66l-29.44,29.44l68.53,68.53L363.85,90.76z M183.48,134.08l-30.13,30.13v137.05L252,202.61
		L183.48,134.08z M290.32,23.71c-50.22,0-96.2,18.12-131.77,48.19L422.2,72C386.62,41.88,340.59,23.71,290.32,23.71z M265.28,215.89
		L153.35,327.82v51.6c7.07,6.4,14.6,12.31,22.52,17.68c71.52-7.15,136.12-38.15,185.71-84.91L265.28,215.89z M134.57,360.03V95.84
		c-30.23,35.61-48.47,81.72-48.47,132.1S104.34,324.42,134.57,360.03z M474.96,140.56c-4.36,24.55-11.45,48.5-21.24,71.65
		c-8.42,19.91-18.85,39.12-30.98,57.09c-12.02,17.79-25.82,34.52-41.03,49.73c-15.2,15.2-31.93,29.01-49.73,41.03
		c-17.97,12.14-37.17,22.56-57.09,30.98c-23.36,9.88-47.53,17.01-72.3,21.36c26.58,12.66,56.33,19.76,87.73,19.76
		c112.79,0,204.22-91.43,204.22-204.22C494.54,196.67,487.52,167.05,474.96,140.56z M278.56,202.61l96.3,96.3
		c46.62-49.44,77.58-113.82,84.84-185.09c-5.47-8.11-11.51-15.8-18.07-23.02l-51.24-0.02L278.56,202.61z"/>
	<g>
		<path class="st1" d="M66.66,468.94H48.66v107.29H38.31V468.94H20.16v-9.15h46.5V468.94z"/>
		<path class="st1" d="M134.88,576.23h-10.27l-4.09-25.89H97.38l-4.09,25.89h-9.97v-0.3l20.76-116.44h10.19L134.88,576.23z
			 M119.18,541.19l-10.19-63.09l-10.27,63.09H119.18z"/>
		<path class="st1" d="M206,555.17c0,6.15-2.02,11.2-6.06,15.14c-4.04,3.94-9.14,5.92-15.29,5.92h-26.64V459.79h26.64
			c6.2,0,11.31,1.97,15.33,5.91c4.02,3.94,6.03,8.99,6.03,15.14V555.17z M195.66,554.13v-72.4c0-3.82-1.2-6.91-3.61-9.26
			c-2.41-2.36-5.52-3.53-9.34-3.53h-14.36v98.14h13.76c4.02,0,7.28-1.15,9.78-3.46C194.41,561.31,195.66,558.15,195.66,554.13z"/>
		<path class="st1" d="M280.25,576.23h-10.27l-4.09-25.89h-23.14l-4.09,25.89h-9.97v-0.3l20.76-116.44h10.19L280.25,576.23z
			 M264.55,541.19l-10.19-63.09l-10.27,63.09H264.55z"/>
		<path class="st1" d="M343.48,468.94h-18.01v107.29h-10.34V468.94h-18.15v-9.15h46.5V468.94z"/>
		<path class="st1" d="M411.7,576.23h-10.27l-4.09-25.89H374.2l-4.09,25.89h-9.97v-0.3l20.76-116.44h10.19L411.7,576.23z
			 M396,541.19l-10.19-63.09l-10.27,63.09H396z"/>
		<path class="st1" d="M483.42,576.23h-11.38l-26.86-55.95v55.95h-10.34V459.79h10.34v52.31l24.41-52.31h11.23v0.67l-26.34,55.43
			L483.42,576.23z"/>
		<path class="st1" d="M549.56,576.23h-10.27l-4.09-25.89h-23.14l-4.09,25.89H498v-0.3l20.76-116.44h10.19L549.56,576.23z
			 M533.86,541.19l-10.19-63.09l-10.27,63.09H533.86z"/>
	</g>
	<g>
		<path class="st1" d="M44.54,619.74h7.12v6.59c0,3.58-0.44,5.75-1.5,7.35c-1.33,1.95-3.32,2.92-6.06,2.92c-2.83,0-5-1.02-6.24-2.97
			c-0.93-1.42-1.33-3.49-1.33-6.73V613.9c0-3.54,0.49-5.71,1.59-7.17c1.28-1.64,3.19-2.48,5.66-2.48c3.14,0,5.35,1.37,6.46,3.98
			c0.49,1.19,0.66,2.52,0.71,4.74h-2.96c-0.13-4.29-1.28-6.02-4.16-6.02c-2.92,0-4.07,1.99-4.07,7.08v12.74
			c0,5.09,1.24,7.13,4.29,7.13c3.05,0,4.42-2.17,4.42-6.95v-4.6h-3.94V619.74z"/>
		<path class="st1" d="M58.26,628.46c0,3.98,0.88,5.53,3.19,5.53c2.3,0,3.23-1.42,3.23-4.78h2.92c-0.04,2.3-0.27,3.54-0.84,4.74
			c-0.93,1.68-2.83,2.66-5.35,2.66c-4.38,0-6.24-2.61-6.24-8.76v-5.44c0-6.24,1.81-8.81,6.24-8.81c4.47,0,6.28,2.57,6.28,8.81v3.23
			h-9.43V628.46z M64.68,623.15v-1.55c0-3.94-0.88-5.4-3.23-5.4s-3.19,1.46-3.19,5.4v1.55H64.68z"/>
		<path class="st1" d="M71.1,622c0-5.93,1.86-8.41,6.37-8.41c2.43,0,4.25,0.93,5.27,2.66c0.75,1.24,1.06,2.96,1.06,5.75v6.15
			c0,5.97-1.86,8.45-6.33,8.45c-4.51,0-6.37-2.48-6.37-8.45V622z M80.7,621.73c0-4.03-0.89-5.53-3.28-5.53
			c-2.35,0-3.23,1.5-3.23,5.53v6.73c0,4.03,0.88,5.53,3.23,5.53c2.39,0,3.28-1.5,3.28-5.53V621.73z"/>
		<path class="st1" d="M89.33,628.99c0,1.68,0.13,2.48,0.4,3.14c0.53,1.24,1.59,1.86,3.1,1.86c2.21,0,3.45-1.42,3.45-3.94
			c0-1.28-0.35-2.26-1.06-2.79c-0.53-0.4-0.75-0.49-2.79-1.11c-4.2-1.33-5.44-2.79-5.44-6.5c0-3.89,1.99-6.06,5.66-6.06
			c2.52,0,4.47,1.11,5.31,3.05c0.4,0.97,0.58,2.04,0.58,3.98H95.7c-0.04-3.05-0.93-4.43-2.96-4.43c-1.81,0-2.83,1.24-2.83,3.45
			c0,1.55,0.44,2.48,1.5,3.14c0.62,0.4,0.8,0.49,3.5,1.28c3.14,0.93,4.29,2.52,4.29,5.93c0,4.29-2.26,6.59-6.42,6.59
			c-2.88,0-5-1.33-5.84-3.63c-0.35-0.93-0.49-1.99-0.49-3.98H89.33z"/>
		<path class="st1" d="M102.3,613.99h2.43l0.35,1.68c1.15-1.51,2.3-2.08,4.2-2.08c3.81,0,5.58,2.57,5.58,8.23v6.06
			c0,5.93-1.77,8.72-5.62,8.72c-1.73,0-2.83-0.44-3.85-1.5v11.06h-3.1V613.99z M111.77,621.64c0-3.58-1.02-5.35-3.05-5.35
			c-2.26,0-3.32,2.3-3.32,7.08v3.45c0,4.78,1.06,7.08,3.32,7.08c2.04,0,3.05-1.9,3.05-5.71V621.64z"/>
		<path class="st1" d="M127.12,621.6c0-4.03-0.75-5.4-3.01-5.4c-2.08,0-2.92,1.33-2.92,4.56h-2.88c0-2.48,0.22-3.67,0.88-4.74
			c0.97-1.55,2.74-2.43,5-2.43c4.25,0,6.02,2.43,6.02,8.23v14.38h-2.43l-0.22-1.19c-0.97,1.19-1.99,1.59-4.16,1.59
			c-4.2,0-5.8-1.81-5.8-6.55c0-4.91,1.73-6.82,6.2-6.82h3.32V621.6z M124.6,625.71c-2.79,0-3.89,1.19-3.89,4.29
			c0,2.97,0.84,3.94,3.36,3.94c2.35,0,3.05-1.02,3.05-4.29v-3.94H124.6z"/>
		<path class="st1" d="M133.06,616.6v-2.61h1.9l0.13-7.13h2.97v7.13h2.92v2.61h-2.92v13.41c-0.04,2.7,0.53,3.58,2.3,3.54h0.66v2.65
			h-0.93c-4.2,0-5.18-1.24-5.13-6.5v-13.1H133.06z"/>
		<path class="st1" d="M144.03,604.52h3.1v4.51h-3.1V604.52z M144.03,613.99h3.1v22.21h-3.1V613.99z"/>
		<path class="st1" d="M159.83,621.6c0-4.03-0.75-5.4-3.01-5.4c-2.08,0-2.92,1.33-2.92,4.56h-2.88c0-2.48,0.22-3.67,0.88-4.74
			c0.97-1.55,2.74-2.43,5-2.43c4.25,0,6.02,2.43,6.02,8.23v14.38h-2.43l-0.22-1.19c-0.97,1.19-1.99,1.59-4.16,1.59
			c-4.2,0-5.8-1.81-5.8-6.55c0-4.91,1.73-6.82,6.2-6.82h3.32V621.6z M157.31,625.71c-2.79,0-3.89,1.19-3.89,4.29
			c0,2.97,0.84,3.94,3.36,3.94c2.35,0,3.05-1.02,3.05-4.29v-3.94H157.31z"/>
		<path class="st1" d="M170.32,604.61v24.91c-0.04,3.05,0.58,4.03,2.52,4.03h0.66v2.65h-0.75c-4.47-0.04-5.53-1.37-5.53-6.95v-24.65
			H170.32z"/>
		<path class="st1" d="M182.45,604.61h6.37c3.19,0,4.74,0.49,5.97,1.9c1.15,1.42,1.86,3.72,1.86,6.24c0,3.45-1.02,5.84-3.01,6.95
			c2.26,1.33,3.41,3.98,3.41,8.1c0,2.83-0.75,5.27-2.04,6.73c-1.15,1.24-2.52,1.68-5.22,1.68h-7.35V604.61z M189.3,618.59
			c2.74,0,4.12-1.9,4.12-5.62c0-1.95-0.49-3.67-1.28-4.56c-0.71-0.8-1.64-1.11-3.27-1.11h-3.19v11.28H189.3z M189.17,633.5
			c1.9,0,2.79-0.35,3.5-1.33c0.71-0.97,1.15-2.74,1.15-4.6c0-2.17-0.49-4.12-1.28-5.09c-0.71-0.88-1.46-1.19-2.88-1.19h-3.98v12.21
			H189.17z"/>
		<path class="st1" d="M201.12,604.52h3.1v4.51h-3.1V604.52z M201.12,613.99h3.1v22.21h-3.1V613.99z"/>
		<path class="st1" d="M217.76,635.1c-1.19,1.11-2.12,1.5-3.81,1.5c-3.89,0-5.66-2.74-5.66-8.72v-6.06c0-5.66,1.77-8.23,5.58-8.23
			c1.9,0,3.05,0.58,4.2,2.08l0.35-1.68h2.43v23.94c0,6.06-1.86,8.58-6.28,8.58c-2.48,0-4.2-0.97-5-2.79
			c-0.4-0.93-0.53-1.9-0.53-3.76h2.79c0,2.83,0.8,3.98,2.74,3.98c2.39,0,3.19-1.46,3.19-5.62V635.1z M211.39,628.1
			c0,3.89,1.02,5.8,3.1,5.8c2.21,0,3.27-2.3,3.27-7.08v-3.45c0-4.82-1.06-7.08-3.32-7.08c-2.04,0-3.05,1.77-3.05,5.35V628.1z"/>
		<path class="st1" d="M231.88,604.61h6.64c5.58-0.13,8.19,2.79,8.1,8.85v13.85c0.09,6.11-2.52,9.03-8.1,8.89h-6.64V604.61z
			 M238.56,633.5c3.45,0.04,4.82-1.81,4.82-6.73v-12.74c0-4.91-1.37-6.77-4.82-6.73h-3.45v26.2H238.56z"/>
		<path class="st1" d="M259.23,621.6c0-4.03-0.75-5.4-3.01-5.4c-2.08,0-2.92,1.33-2.92,4.56h-2.88c0-2.48,0.22-3.67,0.88-4.74
			c0.97-1.55,2.74-2.43,5-2.43c4.25,0,6.02,2.43,6.02,8.23v14.38h-2.43l-0.22-1.19c-0.97,1.19-1.99,1.59-4.16,1.59
			c-4.2,0-5.8-1.81-5.8-6.55c0-4.91,1.73-6.82,6.2-6.82h3.32V621.6z M256.71,625.71c-2.79,0-3.89,1.19-3.89,4.29
			c0,2.97,0.84,3.94,3.36,3.94c2.35,0,3.05-1.02,3.05-4.29v-3.94H256.71z"/>
		<path class="st1" d="M265.16,616.6v-2.61h1.9l0.13-7.13h2.97v7.13h2.92v2.61h-2.92v13.41c-0.04,2.7,0.53,3.58,2.3,3.54h0.66v2.65
			h-0.93c-4.2,0-5.18-1.24-5.13-6.5v-13.1H265.16z"/>
		<path class="st1" d="M284.32,621.6c0-4.03-0.75-5.4-3.01-5.4c-2.08,0-2.92,1.33-2.92,4.56h-2.88c0-2.48,0.22-3.67,0.88-4.74
			c0.97-1.55,2.74-2.43,5-2.43c4.25,0,6.02,2.43,6.02,8.23v14.38h-2.43l-0.22-1.19c-0.97,1.19-1.99,1.59-4.16,1.59
			c-4.2,0-5.8-1.81-5.8-6.55c0-4.91,1.73-6.82,6.2-6.82h3.32V621.6z M281.8,625.71c-2.79,0-3.89,1.19-3.89,4.29
			c0,2.97,0.84,3.94,3.36,3.94c2.35,0,3.05-1.02,3.05-4.29v-3.94H281.8z"/>
		<path class="st1" d="M301.63,636.2h-3.23v-31.6h5.8c3.36,0,5.13,0.71,6.42,2.57c1.15,1.64,1.73,3.94,1.73,6.99
			c0,3.28-0.66,5.75-1.99,7.39c-1.33,1.55-3.05,2.17-6.11,2.17h-2.61V636.2z M304.11,621.02c2.12,0,3.14-0.49,3.94-1.77
			c0.71-1.15,1.06-2.96,1.06-5.13c0-2.3-0.44-4.16-1.24-5.31c-0.8-1.11-1.73-1.5-3.67-1.5h-2.66v13.72H304.11z"/>
		<path class="st1" d="M315.44,613.99h2.39l0.4,1.86c0.84-1.59,1.86-2.26,3.54-2.26c1.15,0,1.99,0.31,3.05,1.15l-1.42,2.61
			c-0.75-0.75-1.37-1.06-2.08-1.06c-1.99,0-2.79,2.65-2.79,9.03v10.89h-3.1V613.99z"/>
		<path class="st1" d="M329.29,628.46c0,3.98,0.88,5.53,3.19,5.53c2.3,0,3.23-1.42,3.23-4.78h2.92c-0.04,2.3-0.27,3.54-0.84,4.74
			c-0.93,1.68-2.83,2.66-5.35,2.66c-4.38,0-6.24-2.61-6.24-8.76v-5.44c0-6.24,1.81-8.81,6.24-8.81c4.47,0,6.28,2.57,6.28,8.81v3.23
			h-9.43V628.46z M335.71,623.15v-1.55c0-3.94-0.88-5.4-3.23-5.4c-2.35,0-3.19,1.46-3.19,5.4v1.55H335.71z"/>
		<path class="st1" d="M342.48,613.99h2.43l0.35,1.68c1.15-1.51,2.3-2.08,4.2-2.08c3.81,0,5.58,2.57,5.58,8.23v6.06
			c0,5.93-1.77,8.72-5.62,8.72c-1.73,0-2.83-0.44-3.85-1.5v11.06h-3.1V613.99z M351.95,621.64c0-3.58-1.02-5.35-3.05-5.35
			c-2.26,0-3.32,2.3-3.32,7.08v3.45c0,4.78,1.06,7.08,3.32,7.08c2.04,0,3.05-1.9,3.05-5.71V621.64z"/>
		<path class="st1" d="M359.03,613.99h2.39l0.4,1.86c0.84-1.59,1.86-2.26,3.54-2.26c1.15,0,1.99,0.31,3.05,1.15l-1.42,2.61
			c-0.75-0.75-1.37-1.06-2.08-1.06c-1.99,0-2.79,2.65-2.79,9.03v10.89h-3.1V613.99z"/>
		<path class="st1" d="M369.78,622c0-5.93,1.86-8.41,6.37-8.41c2.43,0,4.25,0.93,5.27,2.66c0.75,1.24,1.06,2.96,1.06,5.75v6.15
			c0,5.97-1.86,8.45-6.33,8.45c-4.51,0-6.37-2.48-6.37-8.45V622z M379.39,621.73c0-4.03-0.89-5.53-3.28-5.53
			c-2.35,0-3.23,1.5-3.23,5.53v6.73c0,4.03,0.88,5.53,3.23,5.53c2.39,0,3.28-1.5,3.28-5.53V621.73z"/>
		<path class="st1" d="M398.15,628.99c0,1.9-0.09,2.48-0.31,3.54c-0.58,2.57-2.74,4.07-5.75,4.07c-4.16,0-5.97-2.57-5.97-8.54v-5.93
			c0-2.97,0.4-5,1.24-6.28c0.93-1.46,2.7-2.3,4.78-2.3c2.48,0,4.43,1.15,5.22,3.14c0.44,1.02,0.62,2.08,0.62,4.25h-2.83
			c-0.04-3.32-0.93-4.78-2.97-4.78c-2.12,0-2.96,1.64-2.96,5.75v6.37c0,4.07,0.84,5.71,2.96,5.71c2.17,0,3.1-1.46,3.1-5H398.15z"/>
		<path class="st1" d="M404.17,628.46c0,3.98,0.88,5.53,3.19,5.53s3.23-1.42,3.23-4.78h2.92c-0.04,2.3-0.27,3.54-0.84,4.74
			c-0.93,1.68-2.83,2.66-5.35,2.66c-4.38,0-6.24-2.61-6.24-8.76v-5.44c0-6.24,1.81-8.81,6.24-8.81c4.47,0,6.28,2.57,6.28,8.81v3.23
			h-9.43V628.46z M410.59,623.15v-1.55c0-3.94-0.88-5.4-3.23-5.4c-2.34,0-3.19,1.46-3.19,5.4v1.55H410.59z"/>
		<path class="st1" d="M418.91,628.99c0,1.68,0.13,2.48,0.4,3.14c0.53,1.24,1.59,1.86,3.1,1.86c2.21,0,3.45-1.42,3.45-3.94
			c0-1.28-0.35-2.26-1.06-2.79c-0.53-0.4-0.75-0.49-2.79-1.11c-4.2-1.33-5.44-2.79-5.44-6.5c0-3.89,1.99-6.06,5.66-6.06
			c2.52,0,4.47,1.11,5.31,3.05c0.4,0.97,0.58,2.04,0.58,3.98h-2.83c-0.04-3.05-0.93-4.43-2.97-4.43c-1.81,0-2.83,1.24-2.83,3.45
			c0,1.55,0.44,2.48,1.5,3.14c0.62,0.4,0.8,0.49,3.5,1.28c3.14,0.93,4.29,2.52,4.29,5.93c0,4.29-2.26,6.59-6.42,6.59
			c-2.88,0-5-1.33-5.84-3.63c-0.35-0.93-0.49-1.99-0.49-3.98H418.91z"/>
		<path class="st1" d="M433.43,628.99c0,1.68,0.13,2.48,0.4,3.14c0.53,1.24,1.59,1.86,3.1,1.86c2.21,0,3.45-1.42,3.45-3.94
			c0-1.28-0.35-2.26-1.06-2.79c-0.53-0.4-0.75-0.49-2.79-1.11c-4.2-1.33-5.44-2.79-5.44-6.5c0-3.89,1.99-6.06,5.66-6.06
			c2.52,0,4.47,1.11,5.31,3.05c0.4,0.97,0.58,2.04,0.58,3.98h-2.83c-0.04-3.05-0.93-4.43-2.97-4.43c-1.81,0-2.83,1.24-2.83,3.45
			c0,1.55,0.44,2.48,1.5,3.14c0.62,0.4,0.8,0.49,3.5,1.28c3.14,0.93,4.29,2.52,4.29,5.93c0,4.29-2.26,6.59-6.42,6.59
			c-2.88,0-5-1.33-5.84-3.63c-0.35-0.93-0.49-1.99-0.49-3.98H433.43z"/>
		<path class="st1" d="M446.48,604.52h3.1v4.51h-3.1V604.52z M446.48,613.99h3.1v22.21h-3.1V613.99z"/>
		<path class="st1" d="M454,613.99h2.35l0.22,1.86c1.33-1.73,2.39-2.26,4.43-2.26c2.39,0,4.12,1.19,4.87,3.36
			c0.35,0.97,0.53,2.48,0.53,4.82v14.43h-3.1v-14.12c0-4.29-0.75-5.8-2.92-5.8c-2.34,0-3.27,1.9-3.27,6.81v13.1H454V613.99z"/>
		<path class="st1" d="M479.72,635.1c-1.19,1.11-2.12,1.5-3.8,1.5c-3.89,0-5.66-2.74-5.66-8.72v-6.06c0-5.66,1.77-8.23,5.58-8.23
			c1.9,0,3.05,0.58,4.2,2.08l0.35-1.68h2.43v23.94c0,6.06-1.86,8.58-6.28,8.58c-2.48,0-4.2-0.97-5-2.79
			c-0.4-0.93-0.53-1.9-0.53-3.76h2.79c0,2.83,0.8,3.98,2.74,3.98c2.39,0,3.19-1.46,3.19-5.62V635.1z M473.34,628.1
			c0,3.89,1.02,5.8,3.1,5.8c2.21,0,3.27-2.3,3.27-7.08v-3.45c0-4.82-1.06-7.08-3.32-7.08c-2.04,0-3.05,1.77-3.05,5.35V628.1z"/>
		<path class="st1" d="M496.76,607.35h-5.44v-2.74h14.12v2.74h-5.44v28.85h-3.23V607.35z"/>
		<path class="st1" d="M507.38,622c0-5.93,1.86-8.41,6.37-8.41c2.43,0,4.25,0.93,5.27,2.66c0.75,1.24,1.06,2.96,1.06,5.75v6.15
			c0,5.97-1.86,8.45-6.33,8.45c-4.51,0-6.37-2.48-6.37-8.45V622z M516.98,621.73c0-4.03-0.88-5.53-3.28-5.53
			c-2.34,0-3.23,1.5-3.23,5.53v6.73c0,4.03,0.88,5.53,3.23,5.53c2.39,0,3.28-1.5,3.28-5.53V621.73z"/>
		<path class="st1" d="M523.71,622c0-5.93,1.86-8.41,6.37-8.41c2.43,0,4.25,0.93,5.27,2.66c0.75,1.24,1.06,2.96,1.06,5.75v6.15
			c0,5.97-1.86,8.45-6.33,8.45c-4.51,0-6.37-2.48-6.37-8.45V622z M533.31,621.73c0-4.03-0.89-5.53-3.28-5.53
			c-2.35,0-3.23,1.5-3.23,5.53v6.73c0,4.03,0.88,5.53,3.23,5.53c2.39,0,3.28-1.5,3.28-5.53V621.73z"/>
		<path class="st1" d="M543.54,604.61v24.91c-0.04,3.05,0.58,4.03,2.52,4.03h0.66v2.65h-0.75c-4.47-0.04-5.53-1.37-5.53-6.95v-24.65
			H543.54z"/>
	</g>
</g>
</svg>
